<svg id="Vrstva_1" data-name="Vrstva 1" xmlns="http://www.w3.org/2000/svg" xmlns:xlink="http://www.w3.org/1999/xlink" width="381" height="381" viewBox="0 0 381 381"><defs><clipPath id="clip-path"><path d="M1,190.481C.988,294.937,85.489,379.654,189.866,380l0,0h.01a22.677,22.677,0,1,0,.21-45.353h0a144.574,144.574,0,1,1,112.766-54.119L218.7,169.732a39.818,39.818,0,0,0-3.671-4.318,34.912,34.912,0,0,0-49.372,49.374,36.266,36.266,0,0,0,4.246,3.611L310.6,325.264a10.822,10.822,0,0,0,14.293-1.188A188.829,188.829,0,0,0,380,190.526C380.012,85.868,295.181,1.014,190.523,1S1.013,85.821,1,190.481" style="fill:none"/></clipPath><linearGradient id="Nepojmenovaný_přechod_2" x1="293.331" y1="-154.979" x2="294.466" y2="-154.979" gradientTransform="matrix(0, 334.017, 334.017, 0, 51956.16, -97976.609)" gradientUnits="userSpaceOnUse"><stop offset="0" stop-color="#009fe3"/><stop offset="1" stop-color="#0086bf"/></linearGradient></defs><title>tools_image_1</title><g style="clip-path:url(#clip-path)"><rect x="0.988" y="0.989" width="379.024" height="379.011" style="fill:url(#Nepojmenovaný_přechod_2)"/></g></svg>