<?xml version="1.0" encoding="utf-8"?>
<!-- Generator: Adobe Illustrator 15.0.0, SVG Export Plug-In . SVG Version: 6.00 Build 0)  -->
<!DOCTYPE svg PUBLIC "-//W3C//DTD SVG 1.1//EN" "http://www.w3.org/Graphics/SVG/1.1/DTD/svg11.dtd">
<svg version="1.1"
	 id="svg2" xmlns:rdf="http://www.w3.org/1999/02/22-rdf-syntax-ns#" xmlns:cc="http://creativecommons.org/ns#" xmlns:dc="http://purl.org/dc/elements/1.1/" xmlns:svg="http://www.w3.org/2000/svg"
	 xmlns="http://www.w3.org/2000/svg" xmlns:xlink="http://www.w3.org/1999/xlink" x="0px" y="0px" width="484px" height="438px"
	 viewBox="59.229 82.295 484 438" enable-background="new 59.229 82.295 484 438" xml:space="preserve">
<g id="g10" transform="matrix(1.3333333,0,0,-1.3333333,0,602.58933)">
	<g id="g12">
		<g id="g14">
			<g id="g20">
				<g id="g22">
					
						<linearGradient id="path30_1_" gradientUnits="userSpaceOnUse" x1="39.0077" y1="11.8576" x2="39.997" y2="11.8576" gradientTransform="matrix(0 -440.2524 -440.2524 0 5446.1504 17562.4883)">
						<stop  offset="0" style="stop-color:#6961D1"/>
						<stop  offset="1" style="stop-color:#5A53B3"/>
					</linearGradient>
					<path id="path30" fill="url(#path30_1_)" d="M111.929,389.262c-15.282,0-27.784-12.391-27.784-27.537l0,0v-11.337H51.462
						c-3.212,0-5.841-2.605-5.841-5.789l0,0v-68.132c0-3.184,2.63-5.789,5.841-5.789l0,0h32.682v-89.481H51.462
						c-3.212,0-5.841-2.606-5.841-5.789l0,0v-68.131c0-3.186,2.63-5.791,5.841-5.791l0,0h32.682V90.218
						c0-15.146,12.503-27.538,27.784-27.538l0,0h227.985c15.281,0,27.784,12.391,27.784,27.538l0,0v95.632h32.684
						c3.212,0,5.84,2.604,5.84,5.788l0,0v68.133c0,3.184-2.628,5.789-5.84,5.789l0,0h-32.684v96.165
						c0,15.146-12.502,27.537-27.784,27.537l0,0H111.929z M105.746,109.392v233.159c0,4.928,4.069,8.962,9.043,8.962l0,0h222.266
						c4.973,0,9.042-4.033,9.042-8.962l0,0V109.392c0-4.929-4.069-8.962-9.042-8.962l0,0H114.788
						C109.814,100.43,105.746,104.463,105.746,109.392"/>
				</g>
			</g>
		</g>
	</g>
	<g id="g32">
		<g id="g34">
			<g id="g40">
				<g id="g42">
					
						<linearGradient id="path50_1_" gradientUnits="userSpaceOnUse" x1="40.9845" y1="11.9674" x2="41.9738" y2="11.9674" gradientTransform="matrix(0 -41.7955 -41.7955 0 725.9232 1969.4069)">
						<stop  offset="0" style="stop-color:#6961D1"/>
						<stop  offset="1" style="stop-color:#5A53B3"/>
					</linearGradient>
					<path id="path50" fill="url(#path50_1_)" d="M218.779,254.973c-2.217-0.965-4.165-2.253-5.844-3.862l0,0
						c-1.676-1.608-2.976-3.51-3.895-5.711l0,0c-0.919-2.197-1.381-4.53-1.381-6.999l0,0v-12.984h36.204v13.788
						c0,2.361-0.488,4.613-1.462,6.758l0,0c-0.974,2.146-2.272,3.969-3.896,5.47l0,0c-1.623,1.503-3.516,2.711-5.681,3.62l0,0
						c-2.164,0.913-4.437,1.368-6.82,1.368l0,0C223.406,256.421,220.999,255.937,218.779,254.973"/>
				</g>
			</g>
		</g>
	</g>
	<g id="g52">
		<g id="g54">
			<g id="g60">
				<g id="g62">
					
						<linearGradient id="path70_1_" gradientUnits="userSpaceOnUse" x1="39.1516" y1="11.8649" x2="40.1409" y2="11.8649" gradientTransform="matrix(0 -259.4565 -259.4565 0 3304.4675 10480.3818)">
						<stop  offset="0" style="stop-color:#6961D1"/>
						<stop  offset="1" style="stop-color:#5A53B3"/>
					</linearGradient>
					<path id="path70" fill="url(#path70_1_)" d="M170.759,322.205c-7.325,0-13.318-5.94-13.318-13.199l0,0v-12.708h-20.014
						c-2.408,0-4.38-1.954-4.38-4.342l0,0v-7.363c0-2.388,1.972-4.341,4.38-4.341l0,0h20.014v-25.489h-20.014
						c-2.408,0-4.38-1.953-4.38-4.341l0,0v-7.364c0-2.388,1.972-4.341,4.38-4.341l0,0h20.014v-25.489h-20.014
						c-2.408,0-4.38-1.954-4.38-4.341l0,0v-7.365c0-2.388,1.972-4.34,4.38-4.34l0,0h20.014v-25.49h-20.014
						c-2.408,0-4.38-1.953-4.38-4.34l0,0v-7.365c0-2.388,1.972-4.343,4.38-4.343l0,0h20.014v-12.707
						c0-7.259,5.994-13.199,13.318-13.199l0,0h110.325c7.324,0,13.317,5.94,13.317,13.199l0,0v12.707h20.016
						c2.407,0,4.378,1.954,4.378,4.343l0,0v7.365c0,2.388-1.972,4.34-4.378,4.34l0,0h-20.016v25.49h20.016
						c2.407,0,4.378,1.953,4.378,4.34l0,0v7.364c0,2.388-1.972,4.342-4.378,4.342l0,0h-20.016v25.489h20.016
						c2.407,0,4.378,1.953,4.378,4.341l0,0v7.364c0,2.388-1.972,4.341-4.378,4.341l0,0h-20.016v25.489h20.016
						c2.407,0,4.378,1.953,4.378,4.341l0,0v7.363c0,2.388-1.972,4.342-4.378,4.342l0,0h-20.016v12.708
						c0,7.26-5.993,13.199-13.317,13.199l0,0H170.759z M189.557,177.824c-2.002,2.038-3.004,4.452-3.004,7.239l0,0v54.625
						c0,5.365,1.083,10.352,3.248,14.963l0,0c2.166,4.613,5.032,8.608,8.604,11.986l0,0c3.572,3.379,7.74,6.008,12.501,7.885l0,0
						c4.765,1.878,9.741,2.815,14.936,2.815l0,0c5.628,0,10.822-1.018,15.584-3.056l0,0c4.764-2.036,8.905-4.828,12.419-8.368l0,0
						c3.519-3.54,6.278-7.666,8.281-12.388l0,0c2.004-4.719,3.06-9.759,3.166-15.124l0,0v-53.82c0-2.788-1.081-5.148-3.248-7.079
						l0,0c-2.164-1.931-4.651-2.895-7.468-2.895l0,0c-2.812,0-5.301,1.044-7.468,3.136l0,0c-2.164,2.091-3.246,4.533-3.246,7.32l0,0
						v18.472h-36.204v-18.954c0-2.895-1.055-5.281-3.165-7.159l0,0c-2.111-1.876-4.628-2.815-7.55-2.815l0,0
						C194.021,174.715,191.561,175.786,189.557,177.824"/>
				</g>
			</g>
		</g>
	</g>
</g>
</svg>
