<svg id="Vrstva_1" data-name="Vrstva 1" xmlns="http://www.w3.org/2000/svg" width="341" height="271" viewBox="0 0 341 271"><title>call_us_icon</title><path d="M240.62,135.5q0-54.672,0-109.343c0-15.511-9.647-25.2-25.063-25.2Q169.969.944,124.385.958C110.566.968,100.4,11.015,100.4,24.8q-.045,110.706,0,221.412c0,13.779,10.168,23.826,23.988,23.836q46.039.034,92.078-.007a26,26,0,0,0,4.82-.331c11.715-2.229,19.32-11.628,19.328-23.953Q240.65,190.626,240.62,135.5ZM169.334,10.338h16.54a2.268,2.268,0,1,1,0,4.535h-16.54a2.268,2.268,0,0,1,0-4.535ZM158.2,7.671a4.735,4.735,0,1,1-4.736,4.735A4.735,4.735,0,0,1,158.2,7.671Zm12.516,257.281a9.45,9.45,0,0,1-9.54-9.342,9.316,9.316,0,1,1,9.54,9.342Zm60.1-36.717c0,8.17-3.638,11.82-11.815,11.821q-48.456.007-96.913,0c-8.323,0-11.93-3.645-11.93-12.032q0-96,0-192.008c0-8.583,3.5-12.057,12.151-12.057q48.456,0,96.913,0c7.984,0,11.6,3.632,11.6,11.667q.006,48.153,0,96.307T230.813,228.235Z" style="fill:#fff"/><path d="M340.164,137.377c-.19,19.283-8.02,42.261-23.1,62.829-2.043,2.787-4.5,4.66-8.111,4.3a7.707,7.707,0,0,1-6.584-4.671c-1.45-3.153-.85-6.073,1.21-8.787a94.644,94.644,0,0,0,15.248-29.063c10.913-34.942,4.065-66.451-18.693-94.808a14.773,14.773,0,0,1-2.96-5.135,7.758,7.758,0,0,1,4.248-8.839c3.427-1.7,7.254-.875,10.082,2.35a115.649,115.649,0,0,1,20.351,33.087C337.4,102.322,340.152,116.436,340.164,137.377Z" style="fill:#fff"/><path d="M302.451,125.827c-.28,21.117-5.458,37.4-15.626,52.089-2.007,2.9-4.7,4.405-8.268,3.855a7.772,7.772,0,0,1-6.6-5.891c-.859-2.859.158-5.295,1.779-7.652a68.249,68.249,0,0,0-2.24-81.315c-1.784-2.315-3.227-4.67-2.579-7.737A7.841,7.841,0,0,1,275,72.733c3.48-.855,6.332.385,8.549,3.17a82.362,82.362,0,0,1,16.446,33.705C301.4,115.979,301.969,122.537,302.451,125.827Z" style="fill:#fff"/><path d="M.836,137.377c.19,19.283,8.02,42.261,23.1,62.829,2.043,2.787,4.5,4.66,8.111,4.3a7.707,7.707,0,0,0,6.584-4.671c1.45-3.153.85-6.073-1.21-8.787a94.644,94.644,0,0,1-15.248-29.063c-10.913-34.942-4.065-66.451,18.693-94.808a14.773,14.773,0,0,0,2.96-5.135,7.758,7.758,0,0,0-4.248-8.839c-3.427-1.7-7.254-.875-10.082,2.35A115.649,115.649,0,0,0,9.143,88.642C3.6,102.322.848,116.436.836,137.377Z" style="fill:#fff"/><path d="M38.549,125.827c.28,21.117,5.458,37.4,15.626,52.089,2.007,2.9,4.7,4.405,8.268,3.855a7.772,7.772,0,0,0,6.6-5.891c.859-2.859-.158-5.295-1.779-7.652a68.249,68.249,0,0,1,2.24-81.315c1.784-2.315,3.227-4.67,2.579-7.737A7.841,7.841,0,0,0,66,72.733c-3.48-.855-6.332.385-8.549,3.17a82.362,82.362,0,0,0-16.446,33.705C39.6,115.979,39.031,122.537,38.549,125.827Z" style="fill:#fff"/></svg>