<?xml version="1.0" encoding="utf-8"?>
<!-- Generator: Adobe Illustrator 23.0.3, SVG Export Plug-In . SVG Version: 6.00 Build 0)  -->
<svg version="1.1" id="Cross" xmlns="http://www.w3.org/2000/svg" xmlns:xlink="http://www.w3.org/1999/xlink" x="0px" y="0px"
	 viewBox="0 0 451.8 451.9" style="enable-background:new 0 0 451.8 451.9;" xml:space="preserve">
<style type="text/css">
	.st0{fill:#FFFFFF;}
</style>
<path class="st0" d="M274.5,225.9c34.3-34.2,68.2-67.8,101.7-101.7c8.7-8.8,10.9-20.2,7.6-32.2c-7-25.7-38.7-33.7-57.9-14.6
	c-31.6,31.4-67.7,67.7-100,100c-34.2-34.3-67.8-68.2-101.7-101.7c-8.8-8.7-20.2-10.9-32.2-7.6c-25.7,7-33.7,38.7-14.6,57.9
	c31.4,31.6,67.7,67.7,100,100c-34.3,34.2-68.2,67.8-101.7,101.7c-8.7,8.8-10.9,20.2-7.6,32.2c7,25.7,38.7,33.7,57.9,14.6
	c31.6-31.4,67.7-67.7,100-100c34.2,34.3,67.8,68.2,101.7,101.7c8.8,8.7,20.2,10.9,32.2,7.6c25.7-7,33.7-38.7,14.6-57.9
	C343.1,294.3,306.8,258.2,274.5,225.9z"/>
</svg>
