<svg id="Vrstva_1" data-name="Vrstva 1" xmlns="http://www.w3.org/2000/svg" width="202" height="187" viewBox="0 0 202 187"><title>dialog_icon</title><path d="M177.777,48.807h-1.549V100.46c0,22.693-14.434,37.127-37.128,37.127H83.914c-2.448,2.914-5.095,5.8-7.917,8.617a78.806,78.806,0,0,1-8.169,7.074,23.314,23.314,0,0,0,13.515,4.314h52.092a101.63,101.63,0,0,0,10.015,11.575c9.111,9.11,22.777,15.584,30.689,16.783s4.316-4.076.48-11.029c-2.567-4.651-4.487-12.195-5.407-17.329h8.565A23.556,23.556,0,0,0,201.264,134.1V72.294A23.556,23.556,0,0,0,177.777,48.807Z" style="fill:#fff"/><path d="M135.072.88H27.046A26.387,26.387,0,0,0,.736,27.19V96.431a26.387,26.387,0,0,0,26.31,26.31h9.595c-1.031,5.751-3.182,14.2-6.057,19.411-4.3,7.789-8.326,13.7.537,12.355s24.172-8.594,34.379-18.8a113.874,113.874,0,0,0,11.217-12.966h58.355a26.387,26.387,0,0,0,26.31-26.31V27.19A26.387,26.387,0,0,0,135.072.88ZM42.154,74.021a12.2,12.2,0,0,1-12.4-12.261,12.068,12.068,0,0,1,12.3-12.267,12.255,12.255,0,0,1,12.33,12.265A12.4,12.4,0,0,1,42.154,74.021Zm38.726-.06A12.254,12.254,0,1,1,93.317,62.024,12.2,12.2,0,0,1,80.88,73.961Zm39.1.07A12.458,12.458,0,0,1,107.732,61.6a12.294,12.294,0,0,1,12.321-12.118A12.105,12.105,0,0,1,132.36,61.75,12.336,12.336,0,0,1,119.984,74.031Z" style="fill:#fff"/></svg>