<svg id="Vrstva_1" data-name="Vrstva 1" xmlns="http://www.w3.org/2000/svg" width="123" height="124" viewBox="0 0 123 124"><title>fb_icon</title><path d="M105.915.632H17.085A17,17,0,0,0,.131,17.586v88.828a17,17,0,0,0,16.954,16.954h88.83a17,17,0,0,0,16.954-16.954V17.586A17,17,0,0,0,105.915.632ZM79.326,55.659,78.8,61.978h-11.9v40.184H50.821V61.978H42.715V45.9h8.02V38.661c0-6.625,3.095-16.823,16.91-16.823H80.066V35.611H71.045c-1.483,0-3.531.74-3.531,3.835V45.9H80.285Z" style="fill:#319af2;fill-rule:evenodd"/></svg>