<svg id="Layer_1" data-name="Layer 1" xmlns="http://www.w3.org/2000/svg" viewBox="0 0 286.72 286.72"><defs><style>.cls-1{fill:#231f20;}.cls-2{fill:#448faf;}</style></defs><circle class="cls-1" cx="143.36" cy="143.36" r="143.36"/><path class="cls-2" d="M243.34,330.19a26.55,26.55,0,0,0,4.51.35,95,95,0,0,0,0-190,26.55,26.55,0,0,0-4.51.35L338,235.51l-94.67,94.68Zm-7.65-18.76a26.59,26.59,0,0,0,4.52-.35l-75.57-75.57L240.21,160a25.58,25.58,0,0,0-4.52-.35,75.92,75.92,0,0,0,0,151.83ZM241.6,292a56.46,56.46,0,1,0,0-112.91,26.83,26.83,0,0,0-4.52.34l56.11,56.11-56.11,56.11a25.58,25.58,0,0,0,4.52.35Zm-3.3-19.28a25.76,25.76,0,0,0,4.52-.35L206,235.51l36.83-36.82a25.76,25.76,0,0,0-4.52-.35,37.18,37.18,0,1,0,0,74.35Z" transform="translate(-106.22 -92.04)"/></svg>