<svg id="Vrstva_1" data-name="Vrstva 1" xmlns="http://www.w3.org/2000/svg" xmlns:xlink="http://www.w3.org/1999/xlink" width="363" height="332" viewBox="0 0 363 332"><defs><clipPath id="clip-path"><path d="M163.886,291.513A17.614,17.614,0,1,1,181.5,309.127a17.614,17.614,0,0,1-17.614-17.614m-102.915-46.5V48.024a9.1,9.1,0,0,1,9.07-9.069H292.959a9.1,9.1,0,0,1,9.069,9.069V245.012a9.1,9.1,0,0,1-9.069,9.07H70.041a9.1,9.1,0,0,1-9.07-9.07M67.175.753A27.949,27.949,0,0,0,39.308,28.62V40.093H6.53A5.874,5.874,0,0,0,.672,45.951V114.9a5.876,5.876,0,0,0,5.858,5.858H39.308v90.553H6.53a5.875,5.875,0,0,0-5.858,5.858v68.949a5.875,5.875,0,0,0,5.858,5.858H39.308v11.4a27.949,27.949,0,0,0,27.867,27.867H295.826a27.949,27.949,0,0,0,27.866-27.867V206.6H356.47a5.875,5.875,0,0,0,5.858-5.858V131.8a5.874,5.874,0,0,0-5.858-5.858H323.692V28.62A27.949,27.949,0,0,0,295.826.753Z" style="fill:none"/></clipPath><linearGradient id="Nepojmenovaný_přechod_4" x1="1106.478" y1="672.39" x2="1107.478" y2="672.39" gradientTransform="matrix(0, 330.494, 330.494, 0, -222039.012, -365683.27)" gradientUnits="userSpaceOnUse"><stop offset="0" stop-color="#6961d1"/><stop offset="1" stop-color="#5a53b3"/></linearGradient><clipPath id="clip-path-2"><path d="M140.441,59.522l0,0h0a95.761,95.761,0,0,0-48.13,50.828c-.058.141-.108.281-.165.423-.512,1.279-1,2.565-1.458,3.866-.165.469-.316.939-.473,1.409-.322.966-.64,1.932-.932,2.906-.21.7-.4,1.4-.595,2.1-.208.754-.414,1.508-.6,2.268-.215.852-.407,1.7-.6,2.559-.139.63-.277,1.26-.4,1.894-.187.933-.354,1.866-.512,2.8-.1.585-.2,1.168-.283,1.754-.143.949-.266,1.9-.38,2.849q-.11.9-.2,1.81c-.092.915-.168,1.827-.233,2.741q-.07,1-.123,2-.061,1.264-.091,2.525c-.018.752-.028,1.506-.029,2.258s.011,1.506.029,2.257c.019.842.05,1.682.091,2.527.033.666.076,1.332.123,2,.065.914.141,1.828.233,2.74q.09.908.2,1.812c.114.95.237,1.9.379,2.847.088.586.185,1.172.284,1.756.158.934.324,1.867.512,2.8.126.635.265,1.267.4,1.9.189.854.381,1.7.594,2.556.19.761.4,1.514.6,2.27.193.7.385,1.4.595,2.1.292.975.61,1.942.932,2.906.157.471.308.941.473,1.411q.687,1.95,1.458,3.866c.057.141.107.281.165.423a95.75,95.75,0,0,0,48.13,50.826h0l0,0a11.5,11.5,0,1,0,9.817-20.8,73.311,73.311,0,0,1-42.324-64.994c0-.4-.015-.8-.013-1.2s.009-.8.013-1.2a73.311,73.311,0,0,1,42.324-64.993v0a11.5,11.5,0,0,0-9.817-20.8" style="fill:none"/></clipPath><linearGradient id="Nepojmenovaný_přechod_4-2" x1="1091.234" y1="679.807" x2="1092.234" y2="679.807" gradientTransform="matrix(71.663, 0, 0, -71.663, -78115.476, 48864.078)" xlink:href="#Nepojmenovaný_přechod_4"/><clipPath id="clip-path-3"><path d="M207.184,65.047a11.5,11.5,0,0,0,5.557,15.279,73.307,73.307,0,0,1,42.324,64.993c0,.4.015.8.014,1.2s-.009.8-.014,1.2a73.307,73.307,0,0,1-42.324,64.994v0a11.5,11.5,0,1,0,9.817,20.8l0,0h0a95.758,95.758,0,0,0,48.13-50.826c.057-.142.109-.283.165-.423.512-1.28,1-2.567,1.458-3.866.165-.47.315-.94.473-1.411.322-.964.64-1.931.932-2.906.21-.7.4-1.4.6-2.1.208-.756.415-1.509.6-2.269.214-.852.407-1.705.6-2.559.139-.629.277-1.26.4-1.894.186-.933.353-1.866.511-2.8.1-.584.2-1.168.284-1.754q.212-1.424.38-2.847c.071-.6.14-1.207.2-1.812q.137-1.368.233-2.74.071-1,.123-2,.063-1.266.091-2.527.027-1.126.029-2.257c0-.752-.011-1.506-.029-2.258q-.028-1.261-.091-2.525-.051-1-.123-2-.1-1.37-.233-2.74c-.06-.6-.129-1.207-.2-1.811-.114-.95-.239-1.9-.38-2.847-.088-.587-.185-1.17-.284-1.756-.159-.934-.325-1.866-.511-2.8-.126-.636-.266-1.266-.4-1.9-.189-.852-.381-1.7-.6-2.555-.188-.761-.4-1.516-.6-2.27-.193-.7-.385-1.4-.6-2.1-.292-.974-.61-1.94-.932-2.906-.158-.469-.308-.94-.473-1.409-.457-1.3-.947-2.587-1.458-3.867-.057-.141-.108-.281-.165-.422a95.766,95.766,0,0,0-48.13-50.827h0l0,0a11.6,11.6,0,0,0-15.374,5.525" style="fill:none"/></clipPath><linearGradient id="Nepojmenovaný_přechod_4-3" x1="1091.234" y1="679.807" x2="1092.234" y2="679.807" gradientTransform="matrix(71.663, 0, 0, -71.663, -77994.604, 48864.078)" xlink:href="#Nepojmenovaný_přechod_4"/><clipPath id="clip-path-4"><path d="M139.552,146.518A41.948,41.948,0,1,0,181.5,104.57a41.948,41.948,0,0,0-41.948,41.948" style="fill:none"/></clipPath><linearGradient id="Nepojmenovaný_přechod_4-4" x1="1093.581" y1="679.244" x2="1094.581" y2="679.244" gradientTransform="matrix(83.896, 0, 0, -83.896, -91607.346, 57132.241)" xlink:href="#Nepojmenovaný_přechod_4"/></defs><title>gonector_icon</title><g style="clip-path:url(#clip-path)"><rect x="0.672" y="0.753" width="361.656" height="330.495" style="fill:url(#Nepojmenovaný_přechod_4)"/></g><g style="clip-path:url(#clip-path-2)"><rect x="85.232" y="58.435" width="73.267" height="177.762" style="fill:url(#Nepojmenovaný_přechod_4-2)"/></g><g style="clip-path:url(#clip-path-3)"><rect x="204.501" y="58.435" width="73.267" height="177.762" style="fill:url(#Nepojmenovaný_přechod_4-3)"/></g><g style="clip-path:url(#clip-path-4)"><rect x="139.552" y="104.57" width="83.896" height="83.895" style="fill:url(#Nepojmenovaný_přechod_4-4)"/></g></svg>