<svg id="Vrstva_1" data-name="Vrstva 1" xmlns="http://www.w3.org/2000/svg" width="159" height="303" viewBox="0 0 159 303"><title>let_us_call_you_icon</title><path d="M158.011,151.5q0-61.213,0-122.427C158,11.705,147.206.854,129.945.852Q78.906.845,27.866.859C12.394.87,1.014,12.12,1.008,27.548q-.051,123.953,0,247.906c.006,15.428,11.386,26.677,26.859,26.688q51.547.039,103.1-.007a29.094,29.094,0,0,0,5.4-.371c13.116-2.5,21.631-13.02,21.641-26.82Q158.045,213.222,158.011,151.5ZM78.195,11.361H96.714a2.539,2.539,0,1,1,0,5.078H78.195a2.539,2.539,0,1,1,0-5.078ZM65.724,8.374a5.3,5.3,0,1,1-5.3,5.3A5.3,5.3,0,0,1,65.724,8.374ZM79.739,296.442a10.581,10.581,0,0,1-10.682-10.46,10.431,10.431,0,1,1,10.682,10.46Zm67.291-41.11c0,9.147-4.073,13.234-13.229,13.236q-54.255.007-108.509,0c-9.32,0-13.357-4.082-13.358-13.472q0-107.491,0-214.983c0-9.611,3.921-13.5,13.6-13.5q54.253,0,108.509,0c8.939,0,12.986,4.066,12.986,13.063q.006,53.915,0,107.83T147.03,255.332Z" style="fill:#fff"/><path d="M52.1,132.929c-.212.089-.416.155-.6.256a40.826,40.826,0,0,0-14.423,12.724c-8.511,12.267-11.016,26.084-10.187,40.7.161,2.83,1.538,4.353,4.331,4.831a33.757,33.757,0,0,0,5.66.41q42.587.036,85.173.011c1.379,0,2.762-.04,4.138-.132,4.153-.277,5.94-2.194,6.049-6.347a74.775,74.775,0,0,0-1.565-17.476c-2.078-9.822-5.918-18.8-12.83-26.264a41.807,41.807,0,0,0-11.717-8.881c-.255.493-.476.9-.682,1.321a40.088,40.088,0,0,1-10.27,13.165c-9.412,7.891-20.341,8.579-30.153,1.894a34.821,34.821,0,0,1-10.409-11.521C53.724,136.1,52.944,134.518,52.1,132.929ZM105.562,109.3c0-.734.03-1.468-.008-2.2s-.133-1.458-.222-2.185c-.981-8.028-4.093-15.056-10.192-20.476C88.288,78.346,80.364,76.458,71.6,79.5,65.1,81.756,60.5,86.337,57.239,92.28c-4.385,7.991-5.195,16.512-3.377,25.325,1.905,9.241,5.785,17.49,12.752,24.044a18.972,18.972,0,0,0,11.539,5.565c5.764.481,10.472-1.887,14.392-5.807C101.387,132.566,105.057,121.551,105.562,109.3Z" style="fill:#fff"/><path d="M52.1,132.929c.847,1.589,1.627,3.171,2.514,4.69A34.821,34.821,0,0,0,65.02,149.14c9.812,6.685,20.741,6,30.153-1.894a40.088,40.088,0,0,0,10.27-13.165c.206-.418.427-.828.682-1.321a41.807,41.807,0,0,1,11.717,8.881c6.912,7.463,10.752,16.442,12.83,26.264a74.775,74.775,0,0,1,1.565,17.476c-.109,4.153-1.9,6.07-6.049,6.347-1.376.092-2.759.132-4.138.132q-42.586.012-85.173-.011a33.757,33.757,0,0,1-5.66-.41c-2.793-.478-4.17-2-4.331-4.831-.829-14.615,1.676-28.432,10.187-40.7A40.826,40.826,0,0,1,51.5,133.185C51.681,133.084,51.885,133.018,52.1,132.929Z" style="fill:#fff"/><path d="M105.562,109.3c-.5,12.254-4.175,23.269-13.017,32.11-3.92,3.92-8.628,6.288-14.392,5.807a18.972,18.972,0,0,1-11.539-5.565c-6.967-6.554-10.847-14.8-12.752-24.044-1.818-8.813-1.008-17.334,3.377-25.325C60.5,86.337,65.1,81.756,71.6,79.5c8.769-3.045,16.693-1.157,23.545,4.933,6.1,5.42,9.211,12.448,10.192,20.476.089.727.184,1.455.222,2.185S105.562,108.563,105.562,109.3Z" style="fill:#fff"/></svg>