<svg id="Vrstva_1" data-name="Vrstva 1" xmlns="http://www.w3.org/2000/svg" width="124" height="124" viewBox="0 0 124 124"><title>linkedin_icon</title><path d="M106.493.523H17.507A17.034,17.034,0,0,0,.523,17.507v88.986a17.034,17.034,0,0,0,16.984,16.984h88.986a17.034,17.034,0,0,0,16.984-16.984V17.507A17.034,17.034,0,0,0,106.493.523ZM43.008,56.709V94.387H26.417V46.93H43.008Zm-8.3-16.9a8.3,8.3,0,1,1,8.3-8.3A8.292,8.292,0,0,1,34.713,39.813Zm62.87,54.574H83.348v-23.1c0-5.544-.566-12.616-8.2-12.616-7.6,0-8.822,5.98-8.822,12.181V94.387H52.481V46.93h13.23v6.418h.219c2.008-3.8,6.81-6.418,13.927-6.418C92,46.93,96.1,52.518,97.191,61.512a55.461,55.461,0,0,1,.392,6.811Z" style="fill:#319af2;fill-rule:evenodd"/></svg>