<svg id="Vrstva_1" data-name="Vrstva 1" xmlns="http://www.w3.org/2000/svg" width="106" height="105" viewBox="0 0 106 105"><title>mag_icon_blue</title><path d="M71.75,57.005c-6.63,11.909,20.888,20.828,30.5,30.495A9.535,9.535,0,0,1,98.2,103.6a8.819,8.819,0,0,1-8.956-2.11C79,91.351,68.864,81.115,58.518,70.746A35.6,35.6,0,0,0,71.75,57.005Z" style="fill:#297cc2"/><path d="M36.139,1A35.314,35.314,0,1,0,71.428,36.245,35.1,35.1,0,0,0,36.139,1Zm-.324,61.083A25.765,25.765,0,0,1,36.4,10.556c13.972.109,25.622,11.869,25.5,25.736A25.987,25.987,0,0,1,35.815,62.083Z" style="fill:#297cc2"/></svg>