<svg id="Vrstva_1" data-name="Vrstva 1" xmlns="http://www.w3.org/2000/svg" width="202" height="199" viewBox="0 0 202 199"><title>mag_icon</title><path d="M136.934,108.133c18.452,18.491,40.033,39.918,58.45,58.444,10.186,10.248,5.909,27.12-7.76,30.847-6.407,1.747-12.465.607-17.165-4.044-19.626-19.421-39.056-39.04-58.884-58.912a68.218,68.218,0,0,0,25.359-26.335" style="fill:#fff"/><path d="M68.686.8a67.68,67.68,0,1,0,67.632,67.547A67.273,67.273,0,0,0,68.686.8Zm-.621,117.066a49.379,49.379,0,0,1,1.129-98.751c26.777.208,49.1,22.746,48.863,49.322C117.807,95.912,95.25,118.215,68.065,117.866Z" style="fill:#fff"/></svg>