<svg id="Vrstva_1" data-name="Vrstva 1" xmlns="http://www.w3.org/2000/svg" xmlns:xlink="http://www.w3.org/1999/xlink" width="363" height="332" viewBox="0 0 363 332"><defs><clipPath id="clip-path"><path d="M61.084,283.867V48.132a9.088,9.088,0,0,1,9.061-9.061H292.857a9.088,9.088,0,0,1,9.061,9.061V283.867a9.088,9.088,0,0,1-9.061,9.061H70.145a9.087,9.087,0,0,1-9.061-9.061M67.28.905A27.922,27.922,0,0,0,39.44,28.746V40.208H6.692A5.871,5.871,0,0,0,.839,46.061v68.885A5.871,5.871,0,0,0,6.692,120.8H39.44v90.47H6.692a5.871,5.871,0,0,0-5.853,5.853v68.884a5.871,5.871,0,0,0,5.853,5.854H39.44v11.393A27.922,27.922,0,0,0,67.28,331.1H295.721a27.922,27.922,0,0,0,27.84-27.842V206.565H356.31a5.869,5.869,0,0,0,5.851-5.853V131.827a5.869,5.869,0,0,0-5.851-5.853H323.561V28.746A27.921,27.921,0,0,0,295.721.905Z" style="fill:none"/></clipPath><linearGradient id="Nepojmenovaný_přechod_4" x1="1085.067" y1="-182.275" x2="1086.067" y2="-182.275" gradientTransform="matrix(0, 330.189, 330.189, 0, 60366.723, -358276.52)" gradientUnits="userSpaceOnUse"><stop offset="0" stop-color="#6961d1"/><stop offset="1" stop-color="#5a53b3"/></linearGradient><clipPath id="clip-path-2"><path d="M146.306,214.964a10.512,10.512,0,0,1-3.171-7.727V153.392a38.66,38.66,0,0,1,11.3-27.572,40.5,40.5,0,0,1,12.526-8.459,42.532,42.532,0,0,1,15.537-3.5,37.807,37.807,0,0,1,15.127,3.091,39.944,39.944,0,0,1,12.526,8.459,41.067,41.067,0,0,1,8.54,12.525,39.109,39.109,0,0,1,.082,30.665,40.915,40.915,0,0,1-8.379,12.444A38.8,38.8,0,0,1,182.5,192.6a39.979,39.979,0,0,1-15.292-2.927l-2.278-.976v18.544a10.513,10.513,0,0,1-3.172,7.727,10.33,10.33,0,0,1-7.564,3.172,10.713,10.713,0,0,1-7.89-3.172M126.228,68.7a13.385,13.385,0,0,0-13.345,13.345V94.9H92.829a4.4,4.4,0,0,0-4.39,4.39v7.445a4.4,4.4,0,0,0,4.39,4.389h20.054v25.771H92.829a4.4,4.4,0,0,0-4.39,4.389v7.445a4.4,4.4,0,0,0,4.39,4.389h20.054v25.771H92.829a4.4,4.4,0,0,0-4.39,4.389v7.445a4.4,4.4,0,0,0,4.39,4.389h20.054v25.771H92.829a4.4,4.4,0,0,0-4.39,4.389v7.445a4.4,4.4,0,0,0,4.39,4.39h20.054v12.848A13.385,13.385,0,0,0,126.228,263.3H236.773a13.384,13.384,0,0,0,13.345-13.345V237.1h20.055a4.4,4.4,0,0,0,4.388-4.39v-7.445a4.4,4.4,0,0,0-4.388-4.389H250.118V195.108h20.055a4.4,4.4,0,0,0,4.388-4.389v-7.445a4.4,4.4,0,0,0-4.388-4.389H250.118V153.114h20.055a4.4,4.4,0,0,0,4.388-4.389V141.28a4.4,4.4,0,0,0-4.388-4.389H250.118V111.12h20.055a4.4,4.4,0,0,0,4.388-4.389V99.286a4.4,4.4,0,0,0-4.388-4.39H250.118V82.048A13.384,13.384,0,0,0,236.773,68.7Z" style="fill:none"/></clipPath><linearGradient id="Nepojmenovaný_přechod_4-2" x1="1086.275" y1="-184.659" x2="1087.275" y2="-184.659" gradientTransform="matrix(0, 194.592, 194.592, 0, 36114.698, -211312.064)" xlink:href="#Nepojmenovaný_přechod_4"/><clipPath id="clip-path-3"><path d="M175.506,136.557a18.8,18.8,0,0,0-5.776,3.821,18.027,18.027,0,0,0-3.985,5.776,17.806,17.806,0,0,0-1.464,7.238,17.4,17.4,0,0,0,1.464,7.077,18.946,18.946,0,0,0,3.985,5.856,19.282,19.282,0,0,0,5.776,3.986,16.852,16.852,0,0,0,7,1.463,17.434,17.434,0,0,0,7.075-1.463,18.019,18.019,0,0,0,5.774-3.986,19.692,19.692,0,0,0,3.9-5.856,17.365,17.365,0,0,0,1.465-7.077,18.8,18.8,0,0,0-5.368-12.688,18.247,18.247,0,0,0-12.849-5.53,17.7,17.7,0,0,0-7,1.383" style="fill:none"/></clipPath><linearGradient id="Nepojmenovaný_přechod_4-3" x1="1098.975" y1="-209.717" x2="1099.975" y2="-209.717" gradientTransform="matrix(0, 36.601, 36.601, 0, 7858.399, -40088.642)" xlink:href="#Nepojmenovaný_přechod_4"/></defs><title>phidgets_icon_1</title><g style="clip-path:url(#clip-path)"><rect x="0.838" y="0.905" width="361.323" height="330.19" style="fill:url(#Nepojmenovaný_přechod_4)"/></g><g style="clip-path:url(#clip-path-2)"><rect x="88.439" y="68.703" width="186.121" height="194.593" style="fill:url(#Nepojmenovaný_přechod_4-2)"/></g><g style="clip-path:url(#clip-path-3)"><rect x="164.281" y="135.174" width="36.439" height="36.6" style="fill:url(#Nepojmenovaný_přechod_4-3)"/></g></svg>