<svg id="Vrstva_1" data-name="Vrstva 1" xmlns="http://www.w3.org/2000/svg" width="205" height="187" viewBox="0 0 205 187"><title>phidgets_icon</title><path d="M200.758,71H182.351V16.351A15.7,15.7,0,0,0,166.7.7H38.3A15.7,15.7,0,0,0,22.649,16.351v6.443H4.242a3.3,3.3,0,0,0-3.29,3.29V64.8a3.3,3.3,0,0,0,3.29,3.29H22.649v50.852H4.242a3.3,3.3,0,0,0-3.29,3.29v38.72a3.3,3.3,0,0,0,3.29,3.29H22.649v6.4A15.7,15.7,0,0,0,38.3,186.3H166.7a15.7,15.7,0,0,0,15.649-15.649V116.3h18.407a3.3,3.3,0,0,0,3.29-3.29V74.292A3.3,3.3,0,0,0,200.758,71Zm-30.572,88.75a5.109,5.109,0,0,1-5.094,5.094H39.908a5.109,5.109,0,0,1-5.094-5.094V27.248a5.109,5.109,0,0,1,5.094-5.094H165.092a5.109,5.109,0,0,1,5.094,5.094Z" style="fill:#fff"/><path d="M152.341,62.653a2.476,2.476,0,0,0,2.468-2.468V56a2.475,2.475,0,0,0-2.468-2.467H141.069V46.312h0a7.522,7.522,0,0,0-7.5-7.5H71.432a7.522,7.522,0,0,0-7.5,7.5h0v7.222H52.659A2.475,2.475,0,0,0,50.191,56v4.184a2.476,2.476,0,0,0,2.468,2.468H63.931V77.138H52.659a2.475,2.475,0,0,0-2.468,2.467V83.79a2.475,2.475,0,0,0,2.468,2.467H63.931v14.486H52.659a2.475,2.475,0,0,0-2.468,2.467V107.4a2.475,2.475,0,0,0,2.468,2.467H63.931v14.485H52.659a2.476,2.476,0,0,0-2.468,2.468V131a2.475,2.475,0,0,0,2.468,2.467H63.931v7.222a7.522,7.522,0,0,0,7.5,7.5h62.136a7.522,7.522,0,0,0,7.5-7.5v-7.222h11.272A2.475,2.475,0,0,0,154.809,131v-4.184a2.476,2.476,0,0,0-2.468-2.468H141.069V109.862h11.272a2.475,2.475,0,0,0,2.468-2.467V103.21a2.475,2.475,0,0,0-2.468-2.467H141.069V86.257h11.272a2.475,2.475,0,0,0,2.468-2.467V79.605a2.475,2.475,0,0,0-2.468-2.467H141.069V62.653Zm-28.888,32.31a23,23,0,0,1-4.71,7,21.816,21.816,0,0,1-15.681,6.492,22.478,22.478,0,0,1-8.595-1.646l-1.28-.549v10.424a5.906,5.906,0,0,1-1.783,4.343,5.8,5.8,0,0,1-4.252,1.783,6.02,6.02,0,0,1-4.435-1.783,5.909,5.909,0,0,1-1.782-4.343V86.414a21.726,21.726,0,0,1,6.354-15.5,22.764,22.764,0,0,1,7.041-4.754,23.9,23.9,0,0,1,8.732-1.966,21.251,21.251,0,0,1,8.5,1.737,22.438,22.438,0,0,1,7.04,4.755,23.086,23.086,0,0,1,4.8,7.04,21.98,21.98,0,0,1,.046,17.236Z" style="fill:#fff"/><path d="M103.062,76.173a9.964,9.964,0,0,0-3.932.777A10.589,10.589,0,0,0,95.884,79.1a10.124,10.124,0,0,0-2.24,3.246,10,10,0,0,0-.823,4.069,9.772,9.772,0,0,0,.823,3.977,10.667,10.667,0,0,0,2.24,3.292,10.826,10.826,0,0,0,3.246,2.24,9.461,9.461,0,0,0,3.932.823,9.779,9.779,0,0,0,3.977-.823,10.139,10.139,0,0,0,3.247-2.24,11.1,11.1,0,0,0,2.194-3.292,9.772,9.772,0,0,0,.823-3.977,10.578,10.578,0,0,0-3.017-7.132A10.26,10.26,0,0,0,103.062,76.173Z" style="fill:#fff"/></svg>