<svg id="Vrstva_1" data-name="Vrstva 1" xmlns="http://www.w3.org/2000/svg" xmlns:xlink="http://www.w3.org/1999/xlink" width="363" height="332" viewBox="0 0 363 332"><defs><clipPath id="clip-path"><path d="M61.084,283.867V48.132a9.088,9.088,0,0,1,9.061-9.061H292.857a9.088,9.088,0,0,1,9.061,9.061V283.867a9.088,9.088,0,0,1-9.061,9.061H70.145a9.087,9.087,0,0,1-9.061-9.061M67.28.905A27.922,27.922,0,0,0,39.44,28.746V40.208H6.692A5.871,5.871,0,0,0,.839,46.061v68.885A5.871,5.871,0,0,0,6.692,120.8H39.44v90.47H6.692a5.871,5.871,0,0,0-5.853,5.853v68.884a5.871,5.871,0,0,0,5.853,5.854H39.44v11.393A27.922,27.922,0,0,0,67.28,331.1H295.721a27.922,27.922,0,0,0,27.84-27.842V206.565H356.31a5.869,5.869,0,0,0,5.851-5.853V131.827a5.869,5.869,0,0,0-5.851-5.853H323.561V28.746A27.921,27.921,0,0,0,295.721.905Z" style="fill:none"/></clipPath><linearGradient id="Nepojmenovaný_přechod_4" x1="1564.873" y1="235.681" x2="1565.873" y2="235.681" gradientTransform="matrix(0, 330.189, 330.189, 0, -77637.76, -516703.451)" gradientUnits="userSpaceOnUse"><stop offset="0" stop-color="#6961d1"/><stop offset="1" stop-color="#5a53b3"/></linearGradient><clipPath id="clip-path-2"><path d="M123,70.023a10.514,10.514,0,0,0-5.629,3.256c-8.433,8.438-16.791,16.954-25.336,25.277-4.716,4.595-6.953,10.006-6.69,16.021a68.3,68.3,0,0,0,2.438,17.449c3.541,14.164,9.907,27.072,17.683,39.338,13.705,21.617,31.284,39.776,50.746,56.156a171.9,171.9,0,0,0,46.642,28.09,91.334,91.334,0,0,0,29.711,6.483,19.047,19.047,0,0,0,14.969-5.39q13.584-13.393,27.076-26.883a13.239,13.239,0,0,0,1.129-1.315,8.347,8.347,0,0,0-.559-11.324,27.753,27.753,0,0,0-5.339-3.845c-11.776-7.017-23.593-13.96-35.386-20.948a13.043,13.043,0,0,0-16.306,2.116q-5.031,5.114-10.067,10.223a4.817,4.817,0,0,1-4.825,1.526c-5.289-1.165-9.927-3.742-14.319-6.716a151.573,151.573,0,0,1-40.427-40.216,58.113,58.113,0,0,1-6.98-13.892,5.586,5.586,0,0,1,1.6-6.519c2.9-2.742,5.7-5.6,8.491-8.456,4.394-4.485,5.138-9.407,2.23-14.943-6.863-13.062-13.724-26.127-20.684-39.139a19.446,19.446,0,0,0-3.606-4.513,6.8,6.8,0,0,0-4.929-1.986,9.344,9.344,0,0,0-1.634.15" style="fill:none"/></clipPath><linearGradient id="Nepojmenovaný_přechod_4-2" x1="1565.206" y1="232.182" x2="1566.206" y2="232.182" gradientTransform="matrix(0, 192.254, 192.254, 0, -44456.182, -300847.131)" xlink:href="#Nepojmenovaný_přechod_4"/></defs><title>phone-companion_icon</title><g style="clip-path:url(#clip-path)"><rect x="0.838" y="0.905" width="361.323" height="330.19" style="fill:url(#Nepojmenovaný_přechod_4)"/></g><g style="clip-path:url(#clip-path-2)"><rect x="85.079" y="69.872" width="193.388" height="192.513" style="fill:url(#Nepojmenovaný_přechod_4-2)"/></g></svg>