<svg id="Vrstva_1" data-name="Vrstva 1" xmlns="http://www.w3.org/2000/svg" width="202" height="115" viewBox="0 0 202 115"><title>restor_icon</title><polygon points="44.845 32.772 35.154 23.081 10.425 47.809 10.425 47.809 0.734 57.5 10.425 67.191 35.154 91.919 44.845 82.228 20.116 57.5 44.845 32.772" style="fill:#fff"/><polygon points="157.155 32.772 166.846 23.081 191.575 47.809 191.575 47.809 201.266 57.5 191.575 67.191 166.846 91.919 157.155 82.228 181.884 57.5 157.155 32.772" style="fill:#fff"/><path d="M157.253,63.723a60.141,60.141,0,0,0,.354-6.227,58.5,58.5,0,0,0-.361-6.233l-15.468-5.5a42.61,42.61,0,0,0-3.658-8.817l7.033-14.8a57.2,57.2,0,0,0-8.824-8.823l-14.816,7.033a42.393,42.393,0,0,0-8.8-3.637l-5.49-15.467a53.947,53.947,0,0,0-12.461,0L89.261,16.719a42.109,42.109,0,0,0-8.809,3.636l-14.8-7.033a57.166,57.166,0,0,0-8.824,8.824l7.034,14.8a42.357,42.357,0,0,0-3.637,8.817l-15.475,5.5a58.5,58.5,0,0,0-.354,6.233,56.72,56.72,0,0,0,.361,6.234l15.475,5.505a42.056,42.056,0,0,0,3.637,8.81l-7.034,14.8a56.859,56.859,0,0,0,8.824,8.824l14.8-7.033a42.784,42.784,0,0,0,8.816,3.644l5.5,15.475a60.158,60.158,0,0,0,6.227.353,58.239,58.239,0,0,0,6.234-.361l5.505-15.482a41.994,41.994,0,0,0,8.809-3.637l14.8,7.034a56.859,56.859,0,0,0,8.824-8.824l-7.034-14.8a43.458,43.458,0,0,0,3.644-8.81ZM101,85.8a28.3,28.3,0,1,1,28.3-28.3A28.3,28.3,0,0,1,101,85.8Z" style="fill:#fff"/><circle cx="101" cy="57.497" r="12.221" style="fill:#fff"/></svg>