<svg id="Vrstva_1" data-name="Vrstva 1" xmlns="http://www.w3.org/2000/svg" xmlns:xlink="http://www.w3.org/1999/xlink" width="363" height="332" viewBox="0 0 363 332"><defs><clipPath id="clip-path"><path d="M61.084,283.867V48.132a9.088,9.088,0,0,1,9.061-9.061H292.857a9.088,9.088,0,0,1,9.061,9.061V283.867a9.088,9.088,0,0,1-9.061,9.061H70.145a9.087,9.087,0,0,1-9.061-9.061M67.28.905A27.922,27.922,0,0,0,39.44,28.746V40.208H6.692A5.871,5.871,0,0,0,.839,46.061v68.885A5.871,5.871,0,0,0,6.692,120.8H39.44v90.47H6.692a5.871,5.871,0,0,0-5.853,5.853v68.884a5.871,5.871,0,0,0,5.853,5.854H39.44v11.393A27.922,27.922,0,0,0,67.28,331.1H295.721a27.922,27.922,0,0,0,27.84-27.842V206.565H356.31a5.869,5.869,0,0,0,5.851-5.853V131.827a5.869,5.869,0,0,0-5.851-5.853H323.561V28.746A27.921,27.921,0,0,0,295.721.905Z" style="fill:none"/></clipPath><linearGradient id="Nepojmenovaný_přechod_4" x1="1559.811" y1="-175.547" x2="1560.811" y2="-175.547" gradientTransform="matrix(0, 330.189, 330.189, 0, 58145.312, -515032.03)" gradientUnits="userSpaceOnUse"><stop offset="0" stop-color="#6961d1"/><stop offset="1" stop-color="#5a53b3"/></linearGradient><clipPath id="clip-path-2"><path d="M172.689,62.344a17.547,17.547,0,1,0,8.763-2.355,17.555,17.555,0,0,0-8.763,2.355" style="fill:none"/></clipPath><linearGradient id="Nepojmenovaný_přechod_4-2" x1="1574.173" y1="-216.377" x2="1575.173" y2="-216.377" gradientTransform="matrix(0, 35.116, 35.116, 0, 7779.799, -55219.04)" xlink:href="#Nepojmenovaný_přechod_4"/><clipPath id="clip-path-3"><path d="M94.641,195.142a17.55,17.55,0,1,0,8.761-2.354,17.555,17.555,0,0,0-8.761,2.354" style="fill:none"/></clipPath><linearGradient id="Nepojmenovaný_přechod_4-3" x1="1574.173" y1="-216.377" x2="1575.173" y2="-216.377" gradientTransform="matrix(0, 35.116, 35.116, 0, 7701.75, -55086.242)" xlink:href="#Nepojmenovaný_přechod_4"/><clipPath id="clip-path-4"><path d="M250.759,195.142a17.547,17.547,0,1,0,8.76-2.354,17.554,17.554,0,0,0-8.76,2.354" style="fill:none"/></clipPath><linearGradient id="Nepojmenovaný_přechod_4-4" x1="1574.173" y1="-216.377" x2="1575.173" y2="-216.377" gradientTransform="matrix(0, 35.116, 35.116, 0, 7857.867, -55086.242)" xlink:href="#Nepojmenovaný_přechod_4"/><clipPath id="clip-path-5"><path d="M250.805,106.694a17.554,17.554,0,0,0-8.662,17.191L217.92,137.87a45.661,45.661,0,0,0-72.886-.027l-24.177-13.958a17.555,17.555,0,1,0-7,12.12l24.508,14.151a45.622,45.622,0,0,0,36.1,60.533v27.67a17.554,17.554,0,1,0,14,0v-27.67a45.621,45.621,0,0,0,36.112-60.5l24.565-14.182a17.556,17.556,0,1,0,1.663-29.311" style="fill:none"/></clipPath><linearGradient id="Nepojmenovaný_přechod_4-5" x1="1561.468" y1="-180.257" x2="1562.468" y2="-180.257" gradientTransform="matrix(0, 167.672, 167.672, 0, 30405.476, -261709.565)" xlink:href="#Nepojmenovaný_přechod_4"/></defs><title>simple-talk_icon</title><g style="clip-path:url(#clip-path)"><rect x="0.838" y="0.905" width="361.323" height="330.19" style="fill:url(#Nepojmenovaný_přechod_4)"/></g><g style="clip-path:url(#clip-path-2)"><rect x="161.416" y="59.989" width="40.101" height="37.609" style="fill:url(#Nepojmenovaný_přechod_4-2)"/></g><g style="clip-path:url(#clip-path-3)"><rect x="83.367" y="192.788" width="40.102" height="37.609" style="fill:url(#Nepojmenovaný_přechod_4-3)"/></g><g style="clip-path:url(#clip-path-4)"><rect x="239.484" y="192.788" width="40.102" height="37.609" style="fill:url(#Nepojmenovaný_přechod_4-4)"/></g><g style="clip-path:url(#clip-path-5)"><rect x="83.368" y="101.846" width="196.266" height="170.164" style="fill:url(#Nepojmenovaný_přechod_4-5)"/></g></svg>