<svg id="Vrstva_1" data-name="Vrstva 1" xmlns="http://www.w3.org/2000/svg" xmlns:xlink="http://www.w3.org/1999/xlink" width="363" height="332" viewBox="0 0 363 332"><defs><clipPath id="clip-path"><path d="M61.084,283.867V48.132a9.088,9.088,0,0,1,9.061-9.061H292.857a9.088,9.088,0,0,1,9.061,9.061V283.867a9.088,9.088,0,0,1-9.061,9.061H70.145a9.087,9.087,0,0,1-9.061-9.061M67.28.905A27.922,27.922,0,0,0,39.44,28.746V40.208H6.692A5.871,5.871,0,0,0,.839,46.061v68.885A5.871,5.871,0,0,0,6.692,120.8H39.44v90.47H6.692a5.871,5.871,0,0,0-5.853,5.853v68.884a5.871,5.871,0,0,0,5.853,5.854H39.44v11.393A27.922,27.922,0,0,0,67.28,331.1H295.721a27.922,27.922,0,0,0,27.84-27.842V206.565H356.31a5.869,5.869,0,0,0,5.851-5.853V131.827a5.869,5.869,0,0,0-5.851-5.853H323.561V28.746A27.921,27.921,0,0,0,295.721.905Z" style="fill:none"/></clipPath><linearGradient id="Nepojmenovaný_přechod_4" x1="1563.835" y1="679.927" x2="1564.835" y2="679.927" gradientTransform="matrix(0, 330.189, 330.189, 0, -224323.08, -516360.737)" gradientUnits="userSpaceOnUse"><stop offset="0" stop-color="#6961d1"/><stop offset="1" stop-color="#5a53b3"/></linearGradient><clipPath id="clip-path-2"><path d="M161.7,115.949a4.164,4.164,0,0,0,0,8.328h53.344a4.164,4.164,0,0,0,0-8.328Z" style="fill:none"/></clipPath><linearGradient id="Nepojmenovaný_přechod_4-2" x1="1529.76" y1="491.355" x2="1530.76" y2="491.355" gradientTransform="matrix(0, 8.328, 8.328, 0, -3903.546, -12623.617)" xlink:href="#Nepojmenovaný_přechod_4"/><clipPath id="clip-path-3"><path d="M161.7,134.142a4.164,4.164,0,0,0,0,8.328h53.344a4.164,4.164,0,0,0,0-8.328Z" style="fill:none"/></clipPath><linearGradient id="Nepojmenovaný_přechod_4-3" x1="1529.76" y1="491.355" x2="1530.76" y2="491.355" gradientTransform="matrix(0, 8.328, 8.328, 0, -3903.546, -12605.424)" xlink:href="#Nepojmenovaný_přechod_4"/><clipPath id="clip-path-4"><path d="M142.954,82.277A13.384,13.384,0,0,0,129.61,95.622v27.684H99.957a14.441,14.441,0,0,0-14.44,14.441v97.535a14.441,14.441,0,0,0,14.44,14.441H238.212a14.449,14.449,0,0,0,13.465-9.213c7.841-21.4,17.659-48.311,25.5-69.714l-.008-.013a7.779,7.779,0,0,0,.314-2.189,8.249,8.249,0,0,0-8.258-8.2l-137.429.041v.012a14.444,14.444,0,0,0-13.475,9.24c-8.888,23.356-12.316,32.011-21.29,55.519V140.966a5.849,5.849,0,0,1,5.849-5.849H129.61v16.45h11.741V100.221a6.267,6.267,0,0,1,6.25-6.249h81.538a6.267,6.267,0,0,1,6.25,6.249c.024,0,.046,31.228.06,51.346H247.13V95.622a13.383,13.383,0,0,0-13.345-13.345Z" style="fill:none"/></clipPath><linearGradient id="Nepojmenovaný_přechod_4-4" x1="1562.978" y1="675.185" x2="1563.978" y2="675.185" gradientTransform="matrix(0, 167.445, 167.445, 0, -112875.129, -261631.347)" xlink:href="#Nepojmenovaný_přechod_4"/></defs><title>simple-file_icon</title><g style="clip-path:url(#clip-path)"><rect x="0.838" y="0.905" width="361.323" height="330.19" style="fill:url(#Nepojmenovaný_přechod_4)"/></g><g style="clip-path:url(#clip-path-2)"><rect x="157.534" y="115.949" width="61.671" height="8.328" style="fill:url(#Nepojmenovaný_přechod_4-2)"/></g><g style="clip-path:url(#clip-path-3)"><rect x="157.534" y="134.142" width="61.671" height="8.328" style="fill:url(#Nepojmenovaný_přechod_4-3)"/></g><g style="clip-path:url(#clip-path-4)"><rect x="85.516" y="82.277" width="191.968" height="167.446" style="fill:url(#Nepojmenovaný_přechod_4-4)"/></g></svg>