<svg id="Vrstva_1" data-name="Vrstva 1" xmlns="http://www.w3.org/2000/svg" xmlns:xlink="http://www.w3.org/1999/xlink" width="363" height="332" viewBox="0 0 363 332"><defs><clipPath id="clip-path"><path d="M61.09,283.861V48.139a9.086,9.086,0,0,1,9.06-9.059h222.7a9.086,9.086,0,0,1,9.06,9.059V283.861a9.087,9.087,0,0,1-9.06,9.06H70.15a9.087,9.087,0,0,1-9.06-9.06M67.287.916A27.921,27.921,0,0,0,39.448,28.755V40.216H6.7A5.87,5.87,0,0,0,.85,46.069v68.882A5.87,5.87,0,0,0,6.7,120.8H39.448v90.464H6.7A5.87,5.87,0,0,0,.85,217.119V286A5.87,5.87,0,0,0,6.7,291.853H39.448v11.393a27.921,27.921,0,0,0,27.839,27.838H295.714a27.92,27.92,0,0,0,27.838-27.838V206.563H356.3a5.87,5.87,0,0,0,5.852-5.853V131.83a5.87,5.87,0,0,0-5.852-5.853H323.552V28.755A27.92,27.92,0,0,0,295.714.916Z" style="fill:none"/></clipPath><linearGradient id="Nepojmenovaný_přechod_4" x1="1083.428" y1="256.909" x2="1084.428" y2="256.909" gradientTransform="matrix(0, 330.169, 330.169, 0, -84641.97, -357713.252)" gradientUnits="userSpaceOnUse"><stop offset="0" stop-color="#6961d1"/><stop offset="1" stop-color="#5a53b3"/></linearGradient><clipPath id="clip-path-2"><path d="M128.671,146.962c.1,8.431,6.551,14.261,14.514,14.357a14.523,14.523,0,0,0,14.32-14.359A14.348,14.348,0,0,0,143.068,132.6c-.211-.012-.422-.018-.635-.018a14.168,14.168,0,0,0-13.762,14.381" style="fill:none"/></clipPath><linearGradient id="Nepojmenovaný_přechod_4-2" x1="1087.665" y1="221.032" x2="1088.665" y2="221.032" gradientTransform="matrix(0, 28.739, 28.739, 0, -6209.298, -31126.221)" xlink:href="#Nepojmenovaný_přechod_4"/><clipPath id="clip-path-3"><path d="M219.98,132.59a14.4,14.4,0,0,0-14.427,14.189,14.418,14.418,0,1,0,28.836.172,14.168,14.168,0,0,0-14.251-14.361h-.158" style="fill:none"/></clipPath><linearGradient id="Nepojmenovaný_přechod_4-3" x1="1087.663" y1="221.044" x2="1088.663" y2="221.044" gradientTransform="matrix(0, 28.746, 28.746, 0, -6134.185, -31133.582)" xlink:href="#Nepojmenovaný_přechod_4"/><clipPath id="clip-path-4"><path d="M167.185,146.492a14.353,14.353,0,1,0,14.823-13.931c-.121,0-.241,0-.362,0a14.322,14.322,0,0,0-14.461,13.935" style="fill:none"/></clipPath><linearGradient id="Nepojmenovaný_přechod_4-4" x1="1087.672" y1="220.971" x2="1088.672" y2="220.971" gradientTransform="matrix(0, 28.696, 28.696, 0, -6159.461, -31078.831)" xlink:href="#Nepojmenovaný_přechod_4"/><clipPath id="clip-path-5"><path d="M104.69,99H258.372v95.831H104.69Zm-19.294.09c.105,5.251.006,10.509,0,15.763q-.009,19.705-.012,39.407c0,13.2.192,26.4-.059,39.6-.2,10.819,8.1,20.235,19.084,20.3h29.054l-.012,32.907a5.327,5.327,0,0,0,5.328,5.327,5.632,5.632,0,0,0,4.383-2.3L170.594,215.5a3.2,3.2,0,0,1,2.834-1.346h84.945c8.044-.022,13.748-4.024,17.39-11.035,1.75-3.366,1.915-7.013,1.909-10.744l0-86.7a78.3,78.3,0,0,0-.436-10.465c-1.116-8.237-9.724-15.551-17.975-15.552l-154.279-.048h-.035c-10.679,0-19.755,9.06-19.548,19.474" style="fill:none"/></clipPath><linearGradient id="Nepojmenovaný_přechod_4-5" x1="1083.796" y1="253.793" x2="1084.796" y2="253.793" gradientTransform="matrix(0, 172.776, 172.776, 0, -43668.018, -187174.744)" xlink:href="#Nepojmenovaný_přechod_4"/></defs><title>simple-dialog_icon</title><g style="clip-path:url(#clip-path)"><rect x="0.85" y="0.916" width="361.3" height="330.169" style="fill:url(#Nepojmenovaný_přechod_4)"/></g><g style="clip-path:url(#clip-path-2)"><rect x="128.564" y="132.582" width="28.944" height="28.831" style="fill:url(#Nepojmenovaný_přechod_4-2)"/></g><g style="clip-path:url(#clip-path-3)"><rect x="205.477" y="132.517" width="29.024" height="29.004" style="fill:url(#Nepojmenovaný_přechod_4-3)"/></g><g style="clip-path:url(#clip-path-4)"><rect x="166.832" y="132.558" width="29.218" height="28.873" style="fill:url(#Nepojmenovaný_přechod_4-4)"/></g><g style="clip-path:url(#clip-path-5)"><rect x="85.126" y="79.611" width="192.574" height="172.778" style="fill:url(#Nepojmenovaný_přechod_4-5)"/></g></svg>