<svg id="Vrstva_1" data-name="Vrstva 1" xmlns="http://www.w3.org/2000/svg" width="202" height="145" viewBox="0 0 202 145"><title>sla_icon</title><path d="M201.229,9.069,197.558.878c-.239.14-.416.232-.581.341-5.058,3.341-10.2,6.559-15.158,10.046a381.134,381.134,0,0,0-71.154,65.121c-.966,1.136-1.432,1.177-2.627.232Q92,63.934,75.98,51.237a1,1,0,0,0-1.543.022c-2.458,2.053-4.96,4.054-7.444,6.076-2.291,1.865-4.579,3.733-6.915,5.637l59.093,60.684c2.133-4.583,4.1-9.112,6.315-13.515A358.368,358.368,0,0,1,158.479,57.6a355.816,355.816,0,0,1,41.8-47.4,10.81,10.81,0,0,1,.947-.719M77.829,47.564c.724.821,3.686,3.6,4.035,3.6,4.259,0,6.624.028,10.883.028,11.96,0,21.867,0,33.827-.016a1.967,1.967,0,0,0,1.277-.385c1.058-1.054,2.024-2.2,2.945-3.225H77.829m-5.227,0H49.329v3.569a3.3,3.3,0,0,0,.376.051c7.122,0,11.416.012,18.537-.015.392,0,4.033-3.357,4.36-3.6M43.15,78.868A9.114,9.114,0,1,0,34,87.833,8.924,8.924,0,0,0,43.15,78.868Zm-9.139,37.246a9,9,0,1,0,.139-18,9,9,0,1,0-.139,18Zm.053-74.536a9,9,0,1,0,.028,17.988,8.994,8.994,0,1,0-.028-17.988ZM47.855,80.812H70.594l.24-.344c-.971-.858-1.908-1.758-2.928-2.552a2.85,2.85,0,0,0-1.578-.653c-7.152-.043-10.283-.029-17.436-.027-.331,0-.662.029-1.037.046Zm83.136,28.328H140.4v-3.59c-3.226,0-3.837-.007-6.994.015a.877.877,0,0,0-.646.351C132.162,106.934,131.618,107.982,130.991,109.14Z" style="fill:#fff"/><path d="M161.34,61.248c.016.325.044.65.044.976,0,24.443.006,46.144,0,70.587,0,5.439-3.033,9.642-7.935,10.924a13.324,13.324,0,0,1-3.335.371q-69.035.027-138.068.011c-6.731,0-11.272-4.583-11.273-11.32q0-58.448,0-116.9c0-5.564,3.32-9.873,8.507-11a13.515,13.515,0,0,1,2.843-.255q68.982-.018,137.965-.008c5.843,0,10.312,3.514,11.107,9.074a53.551,53.551,0,0,1,.168,7.734,1.037,1.037,0,0,1-.389.658c-2.781,2.358-5.229,4.068-8.023,6.41-.041.035-4.7,3.664-4.88,3.686,0-.95.014-2.762,0-3.7-.109-6.225-4.4-10.139-10.6-10.461-.272-.014-.545-.012-.818-.012-39.852,0-71.232,0-111.084-.008-4.385,0-7.783,1.71-10.033,5.521a11.441,11.441,0,0,0-1.388,6c.017,14.455.009,26.769.009,41.224,0,17.522.016,31.1-.011,48.622a10.881,10.881,0,0,0,5.31,9.95,11.82,11.82,0,0,0,6.476,1.505c36.409-.008,66.432-.005,102.841-.005,3.341,0,4.612.019,7.953,0,6.8-.048,11.331-4.591,11.337-11.4.013-14.932,0-21.571,0-36.5,0-.281-.033,3.239.012-1.32,0-.388,4.565-7.919,4.78-8.217,2.708-4.414,5.387-8.307,8.237-12.215Z" style="fill:#fff"/><path d="M47.842,109.125v-3.543c.386-.02.744-.053,1.1-.053,16.3,0,28.57,0,44.865-.016a2.391,2.391,0,0,1,1.7.692,31.186,31.186,0,0,1,2.771,2.724l-.143.2Z" style="fill:#fff"/><path d="M130.991,109.14c.627-1.158,1.171-2.206,1.766-3.224a.877.877,0,0,1,.646-.351c3.157-.022,3.768-.015,6.994-.015v3.59Z" style="fill:#fff"/></svg>