<svg id="Vrstva_1" data-name="Vrstva 1" xmlns="http://www.w3.org/2000/svg" width="121" height="121" viewBox="0 0 121 121"><title>twitter_icon</title><path d="M103.758.73H17.242A16.562,16.562,0,0,0,.73,17.243v86.514A16.562,16.562,0,0,0,17.242,120.27h86.516a16.562,16.562,0,0,0,16.512-16.513V17.243A16.562,16.562,0,0,0,103.758.73Zm-12.1,44.085v2.038a43.455,43.455,0,0,1-1.061,9.55c-4.03,18.04-19.524,35.4-44.61,35.4a46.345,46.345,0,0,1-24.619-7.089c1.316.126,2.545.212,3.862.212a32.473,32.473,0,0,0,19.909-6.749A16.194,16.194,0,0,1,30.148,67.143a14.3,14.3,0,0,0,3.016.339,15.757,15.757,0,0,0,4.246-.594,16.009,16.009,0,0,1-11.8-9.763,14.952,14.952,0,0,1-1.1-5.688v-.212a15.554,15.554,0,0,0,7.256,1.953,15.6,15.6,0,0,1-4.924-21.1A45.584,45.584,0,0,0,59.948,48.594a16.511,16.511,0,0,1-.469-3.609A16.128,16.128,0,0,1,87.285,34.2a32.692,32.692,0,0,0,10.229-3.862,15.829,15.829,0,0,1-7.089,8.786,34.221,34.221,0,0,0,9.211-2.5A33.209,33.209,0,0,1,91.654,44.815Z" style="fill:#319af2;fill-rule:evenodd"/></svg>