<svg id="Vrstva_1" data-name="Vrstva 1" xmlns="http://www.w3.org/2000/svg" xmlns:xlink="http://www.w3.org/1999/xlink" width="286" height="332" viewBox="0 0 286 332"><defs><clipPath id="clip-path"><path d="M125.392,291.476A17.608,17.608,0,1,1,143,309.085a17.607,17.607,0,0,1-17.607-17.609M22.507,48.06a9.094,9.094,0,0,1,9.067-9.068H254.425a9.093,9.093,0,0,1,9.066,9.068V244.989a9.093,9.093,0,0,1-9.066,9.067H70.693L122.1,214.29c15.816-13.854,13.608-35.66.007-49.265s-36.318-14.409-49.258,0l0,0L22.507,230.079ZM28.708.8A27.941,27.941,0,0,0,.85,28.661V303.339A27.941,27.941,0,0,0,28.708,331.2H257.291a27.941,27.941,0,0,0,27.859-27.859V28.661A27.941,27.941,0,0,0,257.291.8Z" style="fill:none"/></clipPath><linearGradient id="Nepojmenovaný_přechod" x1="-84.868" y1="393.745" x2="-83.868" y2="393.745" gradientTransform="matrix(0, 330.395, 330.395, 0, -129948.314, 28040.753)" gradientUnits="userSpaceOnUse"><stop offset="0" stop-color="#ec6408"/><stop offset="1" stop-color="#d85118"/></linearGradient><clipPath id="clip-path-2"><path d="M59.784,53.892C56.4,57.154,53.07,60.478,49.357,64.15c3.841,2.267,7.143,4.365,10.58,6.217,13.845,7.465,27.739,14.84,41.6,22.279,2.209,1.187,4.283,2.628,6.508,3.78a7.92,7.92,0,0,1,4.56,7.235c.129,6.105.422,12.262-.2,18.31-.434,4.218.333,7.045,3.6,9.946L159.337,175.2c1.127,1.1,2.66.092,4.246-.337a30.05,30.05,0,0,1,12.557-.773c10.072,1.571,15.454,7.994,14.971,18.2a66,66,0,0,1-1.529,9.764,2.584,2.584,0,0,0,.723,2.864q6.415,6.047,12.663,12.272c3.324,3.314,7.164,3.988,11.483,2.544a25.441,25.441,0,0,0,9.761-6.374q8.81-8.726,17.48-17.591a26.208,26.208,0,0,0,6.466-10.129,10.226,10.226,0,0,0-2.728-11.261c-4.316-4.257-8.631-8.516-12.877-12.842a2.669,2.669,0,0,0-2.732-.714c-4.4.639-8.833,1.513-13.256,1.52-9.937.016-15.662-5.8-15.533-15.765.055-4.173,1.118-8.329,1.644-12.5A2.831,2.831,0,0,0,202.27,132L141.177,70.932A14.526,14.526,0,0,0,134.36,66.8c-9.081-2.239-18.122-4.775-27.322-6.365-15.19-2.624-30.492-4.605-45.75-6.829a2.791,2.791,0,0,0-.4-.027,1.679,1.679,0,0,0-1.105.313" style="fill:none"/></clipPath><linearGradient id="Nepojmenovaný_přechod_2" x1="-84.868" y1="393.747" x2="-83.868" y2="393.747" gradientTransform="matrix(0, 166.873, 166.873, 0, -65556.153, 14215.719)" xlink:href="#Nepojmenovaný_přechod"/></defs><title>new-image-2</title><g style="clip-path:url(#clip-path)"><rect x="0.85" y="0.802" width="284.3" height="330.396" style="fill:url(#Nepojmenovaný_přechod)"/></g><g style="clip-path:url(#clip-path-2)"><rect x="49.357" y="53.578" width="200.219" height="167.598" style="fill:url(#Nepojmenovaný_přechod_2)"/></g></svg>