<svg id="Vrstva_1" data-name="Vrstva 1" xmlns="http://www.w3.org/2000/svg" width="125" height="125" viewBox="0 0 125 125"><title>youtube_icon</title><polygon points="54.18 49.768 54.18 55.271 54.18 73.353 75.975 61.606 64.052 55.141 54.18 49.768" style="fill:#319af2;fill-rule:evenodd"/><path d="M107.01,1H17.99A17.04,17.04,0,0,0,1,17.99v89.02A17.04,17.04,0,0,0,17.99,124h89.02A17.04,17.04,0,0,0,124,107.01V17.99A17.04,17.04,0,0,0,107.01,1Zm-4.219,59.469v5.2a133.427,133.427,0,0,1-.786,13.54s-.827,5.809-3.232,8.386c-3.055,3.362-6.507,3.362-8.035,3.581-11.269.787-28.17.874-28.17.874s-20.965-.218-27.385-.874c-1.834-.349-5.854-.219-8.911-3.581-2.4-2.577-3.231-8.386-3.231-8.386a126.155,126.155,0,0,1-.832-13.54v-6.42a128.317,128.317,0,0,1,.832-13.54s.828-5.808,3.231-8.342c3.057-3.318,6.464-3.363,8.077-3.582,11.272-.829,28.128-.829,28.128-.829h.091s16.9,0,28.17.829c1.528.219,4.98.264,8.035,3.582,2.405,2.534,3.232,8.342,3.232,8.342s.786,6.814.786,13.54Z" style="fill:#319af2;fill-rule:evenodd"/></svg>