<?xml version="1.0" encoding="utf-8"?>
<!-- Generator: Adobe Illustrator 23.0.3, SVG Export Plug-In . SVG Version: 6.00 Build 0)  -->
<svg version="1.1" xmlns="http://www.w3.org/2000/svg" xmlns:xlink="http://www.w3.org/1999/xlink" x="0px" y="0px"
	 viewBox="0 0 451.8 451.9" style="enable-background:new 0 0 451.8 451.9;" xml:space="preserve">
<style type="text/css">
	.st0{display:none;}
	.st1{display:inline;}
	.st2{fill:#FFFFFF;}
	.st3{display:inline;fill-rule:evenodd;clip-rule:evenodd;fill:#319AF2;}
	.st4{fill-rule:evenodd;clip-rule:evenodd;fill:#319AF2;}
	.st5{fill:#319AF2;}
	.st6{display:inline;fill-rule:evenodd;clip-rule:evenodd;fill:#FFFFFF;}
</style>
<g id="Service_Level" class="st0">
	<g class="st1">
		<g>
			<path class="st2" d="M425.3,107.3c-2.3-5.1-4.5-10.1-6.9-15.3c-0.4,0.3-0.8,0.4-1.1,0.6c-9.5,6.2-19.1,12.3-28.3,18.8
				c-49.6,34.9-93.8,75.6-133,121.7c-1.8,2.1-2.7,2.2-4.9,0.4c-20-15.8-40-31.6-59.9-47.4c-1.1-0.9-1.8-0.9-2.9,0
				c-4.6,3.8-9.3,7.6-13.9,11.4c-4.3,3.5-8.6,7-12.9,10.5c36.9,37.9,73.8,75.7,110.5,113.4c4-8.6,7.7-17,11.8-25.3
				c17.5-34.7,38.5-67.1,61.7-98.2c23.6-31.7,49.3-61.5,78.2-88.6c0.5-0.5,1.2-0.9,1.8-1.3 M194.6,179.3c1.4,1.5,6.9,6.7,7.5,6.7
				c8,0,12.4,0.1,20.3,0.1c22.4,0,40.9,0,63.2,0c0.8,0,1.9-0.2,2.4-0.7c2-2,3.8-4.1,5.5-6C259,179.3,229,179.3,194.6,179.3
				 M184.8,179.3c-15.1,0-28.2,0-43.5,0c0,2.3,0,4.5,0,6.7c0.3,0,0.5,0.1,0.7,0.1c13.3,0,21.3,0,34.7,0
				C177.4,186,184.2,179.8,184.8,179.3 M129.8,237.8c0-9.5-7.4-16.9-17-16.9c-9.6,0-17.1,7.5-17.1,16.9c0,9.4,7.5,16.7,17,16.8
				C122.3,254.6,129.8,247.4,129.8,237.8z M112.7,307.5c9.6,0,17-7.1,17.1-16.6c0.1-9.6-7.2-16.9-16.8-17.1
				c-9.5-0.1-17.2,7.3-17.2,16.7C95.6,300,103.1,307.4,112.7,307.5z M112.8,168.1c-9.6,0-17.1,7.4-17.1,16.8
				c0,9.4,7.6,16.8,17.1,16.8c9.5,0,16.9-7.4,16.9-16.8C129.8,175.4,122.4,168.1,112.8,168.1z M138.6,241.5c16.8,0,25.9,0,42.5,0
				c0.1-0.2,0.3-0.4,0.4-0.6c-1.8-1.6-3.6-3.3-5.5-4.8c-0.8-0.6-2-1.2-3-1.2c-13.4-0.1-19.2-0.1-32.6,0c-0.6,0-1.2,0.1-1.9,0.1
				C138.6,237.1,138.6,239.3,138.6,241.5z M294,294.4c7.7,0,10.3,0,17.6,0c0-2.3,0-4.4,0-6.7c-6,0-7.2,0-13.1,0
				c-0.4,0-1,0.3-1.2,0.7C296.2,290.3,295.2,292.3,294,294.4z"/>
			<path class="st2" d="M350.7,204.9c0,0.6,0.1,1.2,0.1,1.8c0,45.7,0,86.3,0,132c0,10.2-5.7,18-14.8,20.4c-2,0.5-4.2,0.7-6.2,0.7
				c-86,0-172.1,0-258.1,0c-12.6,0-21.1-8.6-21.1-21.2c0-72.8,0-145.7,0-218.5c0-10.4,6.2-18.5,15.9-20.6c1.7-0.4,3.5-0.5,5.3-0.5
				c86,0,172,0,257.9,0c10.9,0,19.3,6.6,20.8,17c0.7,5.1,0.3,9.3,0.3,14.5c0,0.4-0.4,0.9-0.7,1.2c-5.2,4.4-9.8,7.6-15,12
				c-0.1,0.1-8.8,6.8-9.1,6.9c0-1.8,0-5.2,0-6.9c-0.2-11.6-8.2-19-19.8-19.6c-0.5,0-1,0-1.5,0c-74.5,0-133.2,0-207.7,0
				c-8.2,0-14.6,3.2-18.8,10.3c-2,3.4-2.6,7.2-2.6,11.2c0,27,0,50,0,77.1c0,32.8,0,58.1,0,90.9c0,8,3,14.3,9.9,18.6
				c3.7,2.3,7.8,2.8,12.1,2.8c68.1,0,124.2,0,192.3,0c6.2,0,8.6,0,14.9,0c12.7-0.1,21.2-8.6,21.2-21.3c0-27.9,0-40.3,0-68.2
				c0-0.5-0.1,6.1,0-2.5c0-0.7,8.5-14.8,8.9-15.4c5.1-8.3,10.1-15.5,15.4-22.8C350.4,204.8,350.6,204.8,350.7,204.9z"/>
			<path class="st2" d="M138.5,294.4c0-2.2,0-4.3,0-6.6c0.7,0,1.4-0.1,2.1-0.1c30.5,0,53.4,0,83.9,0c1.3,0,2.2,0.4,3.2,1.3
				c2,1.7,3.5,3.3,5.2,5.1c-0.1,0.2-0.1,0.2-0.3,0.4C198.8,294.4,172.5,294.4,138.5,294.4z"/>
			<path class="st2" d="M294,294.4c1.2-2.2,2.2-4.1,3.3-6c0.2-0.3,0.8-0.7,1.2-0.7c5.9,0,7,0,13.1,0c0,2.3,0,4.4,0,6.7
				C304.3,294.4,301.7,294.4,294,294.4z"/>
		</g>
	</g>
</g>
<g id="Magnifier" class="st0">
	<g class="st1">
		<path class="st2" d="M293.4,242.1c34.6,34.7,75.2,74.9,109.7,109.7c19.1,19.2,11.1,50.9-14.6,57.9c-12,3.3-23.4,1.1-32.2-7.6
			c-36.8-36.5-73.3-73.3-110.6-110.6C266.1,279.3,281.2,264,293.4,242.1"/>
		<path class="st2" d="M165.3,40.6c-70.5-0.1-126.9,56-127.1,126.6C38,237.8,94.5,294.7,165,294.7c70.5,0,127.4-56.9,127.2-127.3
			C292,96.9,235.8,40.7,165.3,40.6z M164.1,260.4c-50.9-0.7-92-42.8-91.5-93.9c0.5-51,42.4-91.9,93.6-91.5
			c50.3,0.4,92.2,42.7,91.7,92.6C257.5,219.2,215.1,261.1,164.1,260.4z"/>
	</g>
</g>
<g id="Dialog" class="st0">
	<g class="st1">
		<g>
			<path class="st2" d="M351.7,152.7h-2.5v84.6c0,37.2-23.6,60.8-60.8,60.8h-90.4c-4,4.8-8.3,9.5-13,14.1c-4.2,4.2-8.7,8-13.4,11.6
				c6.3,4.4,13.9,7.1,22.1,7.1H279c3.5,4.8,8.9,11.5,16.4,19c14.9,14.9,37.3,25.5,50.3,27.5c13,2,7.1-6.7,0.8-18.1
				c-4.2-7.6-7.3-20-8.9-28.4h14c21.2,0,38.5-17.3,38.5-38.5V191.2C390.1,170,372.8,152.7,351.7,152.7z"/>
		</g>
		<path class="st2" d="M281.7,74.2H104.8c-23.7,0-43.1,19.4-43.1,43.1v113.4c0,23.7,19.4,43.1,43.1,43.1h15.7
			c-1.7,9.4-5.2,23.3-9.9,31.8c-7,12.8-13.6,22.4,0.9,20.2c14.5-2.2,39.6-14.1,56.3-30.8c8.4-8.4,14.4-15.8,18.4-21.2h95.6
			c23.7,0,43.1-19.4,43.1-43.1V117.3C324.8,93.6,305.4,74.2,281.7,74.2z M129.5,194c-11.1-0.1-20.2-8.3-20.3-20.1
			c-0.2-12.5,10.6-20.6,20.1-20.1c11.2,0,20.2,8.9,20.2,20.1C149.6,184.8,140.3,194.1,129.5,194z M193,193.9
			c-11.3,0.1-20.3-9.9-19.8-20.6c0.5-11.2,9.3-19.7,20.7-19.5c10.9,0.2,19.6,9.5,19.4,20.6C213.1,185.4,204,194.2,193,193.9z
			 M257,194c-11.2-0.3-20.2-9.4-20.1-20.4c0.1-11,9.2-20,20.2-19.8c10.8-0.1,20,8.1,20.2,20.1C277.4,185,267.8,194.3,257,194z"/>
	</g>
</g>
<g id="Phidgets" class="st0">
	<g class="st1">
		<path class="st2" d="M386.7,189.1h-30.1V99.7c0-14.1-11.5-25.6-25.6-25.6H120.9c-14.1,0-25.6,11.5-25.6,25.6v10.5H65.1
			c-3,0-5.4,2.4-5.4,5.4V179c0,3,2.4,5.4,5.4,5.4h30.1v83.2H65.1c-3,0-5.4,2.4-5.4,5.4v63.4c0,3,2.4,5.4,5.4,5.4h30.1v10.5
			c0,14.1,11.5,25.6,25.6,25.6H331c14.1,0,25.6-11.5,25.6-25.6v-88.9h30.1c3,0,5.4-2.4,5.4-5.4v-63.4
			C392.1,191.5,389.7,189.1,386.7,189.1z M336.7,334.3c0,4.6-3.8,8.3-8.3,8.3H123.5c-4.6,0-8.3-3.8-8.3-8.3V117.5
			c0-4.6,3.8-8.3,8.3-8.3h204.8c4.6,0,8.3,3.8,8.3,8.3V334.3z"/>
		<g>
			<path class="st2" d="M307.5,175.4c2.2,0,4-1.8,4-4v-6.8c0-2.2-1.8-4-4-4H289v-11.8v0c0-6.8-5.5-12.3-12.3-12.3H175.1
				c-6.8,0-12.3,5.5-12.3,12.3v0v11.8h-18.4c-2.2,0-4,1.8-4,4v6.8c0,2.2,1.8,4,4,4h18.4v23.7h-18.4c-2.2,0-4,1.8-4,4v6.8
				c0,2.2,1.8,4,4,4h18.4v23.7h-18.4c-2.2,0-4,1.8-4,4v6.8c0,2.2,1.8,4,4,4h18.4v23.7h-18.4c-2.2,0-4,1.8-4,4v6.8c0,2.2,1.8,4,4,4
				h18.4v11.8c0,6.8,5.5,12.3,12.3,12.3h101.7c6.8,0,12.3-5.5,12.3-12.3v-11.8h18.4c2.2,0,4-1.8,4-4v-6.8c0-2.2-1.8-4-4-4H289v-23.7
				h18.4c2.2,0,4-1.8,4-4v-6.8c0-2.2-1.8-4-4-4H289v-23.7h18.4c2.2,0,4-1.8,4-4v-6.8c0-2.2-1.8-4-4-4H289v-23.7H307.5z M260.2,228.3
				c-1.9,4.3-4.5,8.2-7.7,11.4c-3.2,3.3-7.1,5.9-11.4,7.8c-4.4,1.9-9.1,2.8-14.2,2.8c-5,0-9.7-0.9-14.1-2.7l-2.1-0.9v17.1
				c0,2.8-1,5.2-2.9,7.1c-1.9,1.9-4.3,2.9-7,2.9c-2.9,0-5.3-1-7.3-2.9c-1.9-1.9-2.9-4.3-2.9-7.1v-49.5c0-5,0.9-9.6,2.8-14
				c1.8-4.3,4.4-8.1,7.6-11.4c3.2-3.2,7.1-5.8,11.5-7.8c4.4-1.9,9.2-3,14.3-3.2c4.9,0,9.5,0.9,13.9,2.8c4.4,1.9,8.2,4.5,11.5,7.8
				c3.3,3.3,5.9,7.1,7.9,11.5c1.9,4.4,2.9,9.1,2.9,14.2C263,219.3,262.1,224,260.2,228.3z"/>
			<path class="st2" d="M226.8,197.6c-2.3,0-4.4,0.4-6.4,1.3c-2,0.8-3.8,2-5.3,3.5c-1.5,1.5-2.8,3.3-3.7,5.3c-0.9,2-1.3,4.3-1.3,6.7
				c0,2.3,0.4,4.5,1.3,6.5c0.9,2,2.1,3.8,3.7,5.4c1.5,1.5,3.3,2.8,5.3,3.7c2,0.9,4.1,1.3,6.4,1.3c2.3,0,4.5-0.4,6.5-1.3
				c2-0.9,3.8-2.1,5.3-3.7c1.5-1.5,2.7-3.3,3.6-5.4c0.9-2,1.3-4.2,1.3-6.5c-0.2-4.6-1.8-8.5-4.9-11.7
				C235.6,199.5,231.6,197.8,226.8,197.6z"/>
		</g>
	</g>
</g>
<g id="Restor" class="st0">
	<g class="st1">
		<polygon class="st2" points="109.7,174.8 89.7,154.7 38.5,205.9 38.5,205.9 18.5,225.9 38.5,246 89.7,297.1 109.7,277.1 
			58.6,225.9 		"/>
		<polygon class="st2" points="342.1,174.8 362.2,154.7 413.3,205.9 413.3,205.9 433.4,225.9 413.3,246 362.2,297.1 342.1,277.1 
			393.3,225.9 		"/>
		<g>
			<g>
				<g>
					<g>
						<path class="st2" d="M342.3,238.8c0.4-4.2,0.7-8.5,0.7-12.9c0-4.4-0.3-8.7-0.7-12.9l-32-11.4c-1.9-6.4-4.4-12.5-7.6-18.2
							l14.6-30.6c-5.4-6.7-11.5-12.9-18.3-18.3l-30.7,14.6c-5.7-3.2-11.8-5.7-18.2-7.5l-11.4-32c-4.2-0.5-8.5-0.7-12.9-0.7
							c-4.4,0-8.7,0.3-12.9,0.7l-11.4,32c-6.4,1.8-12.5,4.4-18.2,7.5l-30.6-14.6c-6.7,5.4-12.9,11.5-18.3,18.3l14.6,30.6
							c-3.2,5.7-5.7,11.8-7.5,18.2l-32,11.4c-0.5,4.2-0.7,8.5-0.7,12.9s0.3,8.7,0.7,12.9l32,11.4c1.8,6.4,4.3,12.5,7.5,18.2
							l-14.6,30.6c5.4,6.7,11.5,12.9,18.3,18.3l30.6-14.6c5.7,3.2,11.8,5.7,18.2,7.5l11.4,32c4.2,0.4,8.5,0.7,12.9,0.7
							c4.4,0,8.7-0.3,12.9-0.7l11.4-32c6.4-1.8,12.5-4.3,18.2-7.5l30.6,14.6c6.7-5.4,12.9-11.5,18.3-18.3l-14.6-30.6
							c3.2-5.7,5.7-11.9,7.5-18.2L342.3,238.8z M225.9,284.5c-32.3,0-58.6-26.2-58.6-58.6s26.2-58.6,58.6-58.6s58.6,26.2,58.6,58.6
							S258.3,284.5,225.9,284.5z"/>
					</g>
				</g>
			</g>
		</g>
		<circle class="st2" cx="225.9" cy="225.9" r="25.3"/>
	</g>
</g>
<g id="Facebook" class="st0">
	<path class="st3" d="M336.2,70.9H113.4c-23.4,0-42.5,19.1-42.5,42.5v222.8c0,23.4,19.1,42.5,42.5,42.5h222.8
		c23.4,0,42.5-19.1,42.5-42.5V113.4C378.7,90.1,359.6,70.9,336.2,70.9z M269.5,208.9l-1.3,15.8h-29.8c0,45,0,100.8,0,100.8H198
		c0,0,0-55,0-100.8h-20.3v-16v-24.4h20.1v-18.1c0-16.6,7.8-42.2,42.4-42.2h31.2v34.5c0,0-19,0-22.6,0c-3.7,0-8.9,1.9-8.9,9.6v16.2
		h32L269.5,208.9z"/>
</g>
<g id="Youtube" class="st0">
	<g class="st1">
		<polygon class="st4" points="204,193 204,206.7 204,252 258.6,222.6 228.7,206.4 		"/>
		<path class="st4" d="M336.2,70.9H113.4c-23.4,0-42.5,19.1-42.5,42.5v222.8c0,23.4,19.1,42.5,42.5,42.5h222.8
			c23.4,0,42.5-19.1,42.5-42.5V113.4C378.7,90.1,359.6,70.9,336.2,70.9z M325.7,219.7v13c0,17.1-2,33.9-2,33.9s-2.1,14.5-8.1,21
			c-7.6,8.4-16.3,8.4-20.1,9c-28.2,2-70.5,2.2-70.5,2.2s-52.5-0.5-68.5-2.2c-4.6-0.9-14.6-0.5-22.3-9c-6-6.4-8.1-21-8.1-21
			s-2.1-16.8-2.1-33.9v-13.9v-2.2c0-16.8,2.1-33.9,2.1-33.9s2.1-14.5,8.1-20.9c7.6-8.3,16.2-8.4,20.2-9c28.2-2.1,70.4-2.1,70.4-2.1
			h0.2c0,0,42.3,0,70.5,2.1c3.8,0.5,12.5,0.7,20.1,9c6,6.3,8.1,20.9,8.1,20.9s2,17.1,2,33.9V219.7z"/>
	</g>
</g>
<g id="Twitter" class="st0">
	<path class="st3" d="M336.2,70.9H113.4c-23.4,0-42.5,19.1-42.5,42.5v222.8c0,23.4,19.1,42.5,42.5,42.5h222.8
		c23.4,0,42.5-19.1,42.5-42.5V113.4C378.7,90.1,359.6,70.9,336.2,70.9z M305.1,184.4c0,1.6,0,3.5,0,5.2c0,8.1-0.9,16.3-2.7,24.6
		c-10.4,46.5-50.3,91.2-114.9,91.2c-23.3,0-45-6.8-63.4-18.3c3.4,0.3,6.6,0.5,9.9,0.5c19.3,0,37.1-6.4,51.3-17.4
		c-18-0.4-33.2-12.2-38.6-28.4c2.5,0.5,5.1,0.9,7.8,0.9c3.8,0,7.3-0.5,10.9-1.5c-13.9-2.7-25.4-12.3-30.4-25.1
		c-1.9-4.6-2.8-9.4-2.8-14.6c0-0.2,0-0.3,0-0.5c5.6,3.1,11.9,4.9,18.7,5c-10.9-7.2-18.4-19.7-18.4-33.9c0-7.4,2.2-14.3,5.7-20.4
		c20.3,24.7,50.8,40.9,85.3,42.5c-0.7-3-1.2-6-1.2-9.3c0-22.4,18.6-40.7,41.3-40.7c12,0,22.8,4.9,30.3,12.9
		c9.4-1.9,18.4-5.2,26.3-9.9c-3.1,9.6-9.6,17.5-18.3,22.6c8.4-1.1,16.4-3.3,23.7-6.4C320.1,171.4,313,178.6,305.1,184.4z"/>
</g>
<g id="Twitter_copy" class="st0">
	<g class="st1">
		<path class="st5" d="M284.3,125.3h-119c-22.1,0-40,17.9-40,40v119c0,22.1,17.9,40,40,40h119c22.1,0,40-17.9,40-40v-119
			C324.3,143.3,306.4,125.3,284.3,125.3z M224.8,297.6c-40.1,0-72.8-32.5-72.8-72.8c0-40.1,32.7-72.8,72.8-72.8
			c40.3,0,72.8,32.7,72.8,72.8C297.6,265,265,297.6,224.8,297.6z M296.2,165.6c-6.5,0-11.7-5.2-11.7-11.7c0-6.5,5.2-11.7,11.7-11.7
			c6.5,0,11.7,5.2,11.7,11.7C307.9,160.3,302.7,165.6,296.2,165.6z"/>
		<path class="st5" d="M336.2,70.9H113.4c-23.4,0-42.5,19.1-42.5,42.5v222.8c0,23.4,19.1,42.5,42.5,42.5h222.8
			c23.4,0,42.5-19.1,42.5-42.5V113.4C378.7,90.1,359.6,70.9,336.2,70.9z M337.7,284.3c0,29.3-23.9,53.3-53.3,53.3h-119
			c-29.3,0-53.3-24.1-53.3-53.3v-119c0-29.4,24.1-53.3,53.3-53.3h119c29.4,0,53.3,23.9,53.3,53.3V284.3z"/>
		<path class="st5" d="M224.8,167.1c-31.8,0-57.6,25.9-57.6,57.7c0,31.9,25.8,57.7,57.6,57.7c31.9,0,57.7-25.8,57.7-57.7
			C282.5,193,256.7,167.1,224.8,167.1z"/>
	</g>
</g>
<g id="Linkedin" class="st0">
	<path class="st3" d="M336.2,70.9H113.4c-23.4,0-42.5,19.1-42.5,42.5v222.8c0,23.4,19.1,42.5,42.5,42.5h222.8
		c23.4,0,42.5-19.1,42.5-42.5V113.4C378.7,90.1,359.6,70.9,336.2,70.9z M177.3,211.6v94.3h-41.5v-87.2v-31.6h41.5V211.6z
		 M156.5,169.3c-11.5,0-20.8-9.3-20.8-20.8s9.3-20.8,20.8-20.8c11.5,0,20.8,9.3,20.8,20.8S168,169.3,156.5,169.3z M313.9,305.9
		h-35.6v-57.8c0-13.9-1.4-31.6-20.5-31.6c-19,0-22.1,15-22.1,30.5v58.9H201v-96v-22.8h33.1v16.1h0.5c5-9.5,17-16.1,34.9-16.1
		c30.4,0,40.7,14,43.4,36.5c0.7,5.2,1,10.9,1,17.1V305.9z"/>
</g>
<g id="Layer_10" class="st0">
	<path class="st3" d="M225.9,64.1c-89.4,0-161.8,72.5-161.8,161.8s72.5,161.8,161.8,161.8s161.8-72.5,161.8-161.8
		S315.3,64.1,225.9,64.1z M298.4,234.3h-64.1v64.1h-16.7v-64.1h-64.1v-16.7h64.1v-64.1h16.7v64.1h64.1V234.3z"/>
</g>
<g id="Arrow_Right" class="st0">
	<polygon class="st3" points="115.5,412.9 378.2,225.4 115.5,38 	"/>
</g>
<g id="Play_Icon" class="st0">
	<polygon class="st6" points="188.3,306 300.5,225.9 188.3,145.8 	"/>
	<path class="st6" d="M225.9,53.8c-95,0-172.1,77-172.1,172.1S130.9,398,225.9,398S398,321,398,225.9S321,53.8,225.9,53.8z
		 M225.9,363.5c-76,0-137.6-61.6-137.6-137.6S149.9,88.4,225.9,88.4s137.6,61.6,137.6,137.6S301.9,363.5,225.9,363.5z"/>
</g>
<g id="Arrow_Right_copy" class="st0">
	<polygon class="st3" points="350.4,38 87.7,225.4 350.4,412.9 	"/>
</g>
<g id="Menu">
	<g>
		<path class="st2" d="M366.5,152.2H85.4c-7.3,0-13.3-6-13.3-13.3v-27.7c0-7.3,6-13.3,13.3-13.3h281.1c7.3,0,13.3,6,13.3,13.3v27.7
			C379.9,146.2,373.9,152.2,366.5,152.2z"/>
		<path class="st2" d="M366.5,253.2H85.4c-7.3,0-13.3-6-13.3-13.3v-27.7c0-7.3,6-13.3,13.3-13.3h281.1c7.3,0,13.3,6,13.3,13.3v27.7
			C379.9,247.2,373.9,253.2,366.5,253.2z"/>
		<path class="st2" d="M366.5,354.1H85.4c-7.3,0-13.3-6-13.3-13.3v-27.7c0-7.3,6-13.3,13.3-13.3h281.1c7.3,0,13.3,6,13.3,13.3v27.7
			C379.9,348.1,373.9,354.1,366.5,354.1z"/>
	</g>
</g>
</svg>
